<?xml version="1.0" encoding="UTF-8"?>
<svg xmlns="http://www.w3.org/2000/svg" viewBox="0 0 64 64">
  <defs>
    <style>
      .cls-1 {
        fill: #8e1d14;
      }

      .cls-2 {
        fill: #b4583d;
      }
    </style>
  </defs>
  <g id="bg">
    <path class="cls-2" d="M2.59,9.75v44.5c0,1.52,1.18,2.75,2.65,2.75h53.53c1.46,0,2.65-1.23,2.65-2.75V9.75c0-1.52-1.18-2.75-2.65-2.75H5.23c-1.46,0-2.65,1.23-2.65,2.75Z"/>
  </g>
  <g id="badges">
    <path class="cls-1" d="M16.5,48.57l1.5.87c.31.18.5.51.5.87v1.75c0,.36-.19.69-.5.87l-1.5.87c-.31.18-.7.18-1.01,0l-1.5-.87c-.31-.18-.5-.51-.5-.87v-1.75c0-.36.19-.69.5-.87l1.5-.87c.31-.18.7-.18,1.01,0Z"/>
    <path class="cls-1" d="M48.5,48.57l1.5.87c.31.18.5.51.5.87v1.75c0,.36-.19.69-.5.87l-1.5.87c-.31.18-.7.18-1.01,0l-1.5-.87c-.31-.18-.5-.51-.5-.87v-1.75c0-.36.19-.69.5-.87l1.5-.87c.31-.18.7-.18,1.01,0Z"/>
    <path class="cls-1" d="M32.5,48.57l1.5.87c.31.18.5.51.5.87v1.75c0,.36-.19.69-.5.87l-1.5.87c-.31.18-.7.18-1.01,0l-1.5-.87c-.31-.18-.5-.51-.5-.87v-1.75c0-.36.19-.69.5-.87l1.5-.87c.31-.18.7-.18,1.01,0Z"/>
  </g>
</svg>